<svg id="Layer" enable-background="new 0 0 64 64" height="512" viewBox="0 0 64 64" width="512" xmlns="http://www.w3.org/2000/svg"><circle cx="32" cy="32" fill="#4dd0e1" r="22"/><g fill="#012e52"><path d="m36.396 22.567c-.791-.771-2.059-.754-2.828.037l-6.401 6.571c-1.558 1.557-1.558 4.091-.019 5.63l6.42 6.59c.391.403.911.605 1.432.605.503 0 1.007-.188 1.396-.567.791-.771.808-2.037.037-2.828l-6.42-6.619 6.42-6.59c.77-.792.754-2.058-.037-2.829z"/><path d="m53.508 27.02c-1.094.156-1.854 1.168-1.698 2.262.127.885.19 1.799.19 2.718s-.063 1.833-.19 2.718c-.155 1.094.604 2.106 1.698 2.262.096.014.19.02.285.02.979 0 1.835-.721 1.978-1.718.152-1.071.229-2.175.229-3.282s-.077-2.211-.229-3.282c-.158-1.094-1.178-1.853-2.263-1.698z"/><path d="m32 56c9.061 0 17.253-5.016 21.381-13.09.502-.983.112-2.188-.871-2.691s-2.188-.112-2.691.871c-3.44 6.729-10.268 10.91-17.819 10.91-11.028 0-20-8.972-20-20s8.972-20 20-20c7.551 0 14.379 4.181 17.818 10.91.503.983 1.708 1.374 2.691.871s1.373-1.708.871-2.691c-4.127-8.074-12.319-13.09-21.38-13.09-13.233 0-24 10.766-24 24s10.767 24 24 24z"/></g></svg>