<svg id="Layer" enable-background="new 0 0 64 64" height="512" viewBox="0 0 64 64" width="512" xmlns="http://www.w3.org/2000/svg"><circle cx="32" cy="32" fill="#4dd0e1" r="22"/><g fill="#012e52"><path d="m27.605 41.434c.389.378.892.566 1.395.566.521 0 1.042-.203 1.434-.605l6.382-6.562c.766-.756 1.188-1.764 1.188-2.839 0-1.074-.422-2.082-1.16-2.81l-6.41-6.58c-.772-.792-2.038-.808-2.828-.037-.792.771-.808 2.037-.037 2.828l6.409 6.62-6.41 6.59c-.772.792-.755 2.059.037 2.829z"/><path d="m10.208 37c.094 0 .189-.007.286-.021 1.093-.156 1.853-1.169 1.697-2.263-.127-.88-.191-1.794-.191-2.716s.064-1.836.19-2.717c.156-1.094-.604-2.107-1.697-2.263-1.095-.155-2.107.603-2.263 1.697-.152 1.068-.23 2.172-.23 3.283s.078 2.215.23 3.283c.143.998.999 1.717 1.978 1.717z"/><path d="m32 8c-9.061 0-17.253 5.016-21.381 13.089-.503.984-.113 2.188.87 2.691.984.501 2.188.113 2.691-.87 3.441-6.729 10.269-10.91 17.82-10.91 11.028 0 20 8.972 20 20s-8.972 20-20 20c-7.551 0-14.379-4.181-17.819-10.911-.503-.984-1.709-1.373-2.691-.87-.983.503-1.373 1.708-.87 2.691 4.127 8.074 12.319 13.09 21.38 13.09 13.233 0 24-10.766 24-24s-10.767-24-24-24z"/></g></svg>